PathFileType	4	(X/Y/Z)	path1_08_0-572.trc
DataRate	CameraRate	NumFrames	NumMarkers	Units	OrigDataRate	OrigDataStartFrame	OrigNumFrames
30	30	6	22	m	30	286	572
Frame#	Time	Hip			RHip			RKnee			RAnkle			RBigToe			RSmallToe			RHeel			LHip			LKnee			LAnkle			LBigToe			LSmallToe			LHeel			Neck			Head			Nose			RShoulder			RElbow			RWrist			LShoulder			LElbow			LWrist		
		X1	Y1	Z1	X2	Y2	Z2	X3	Y3	Z3	X4	Y4	Z4	X5	Y5	Z5	X6	Y6	Z6	X7	Y7	Z7	X8	Y8	Z8	X9	Y9	Z9	X10	Y10	Z10	X11	Y11	Z11	X12	Y12	Z12	X13	Y13	Z13	X14	Y14	Z14	X15	Y15	Z15	X16	Y16	Z16	X17	Y17	Z17	X18	Y18	Z18	X19	Y19	Z19	X20	Y20	Z20	X21	Y21	Z21	X22	Y22	Z22
287	9.566666666666666	2.4334087490360186	0.8406349389298932	0.9502799995090041	2.444824145118078	0.8024712604321249	0.8746803820672328	2.4101525142612235	0.4723993091239417	0.8613087586284859	2.456897929735941	0.10987131000438378	0.8754413210453329	2.2827195208385116	0.024686029292937766	0.8494549635444802	2.3261693656748474	0.022557947904740933	0.7959615551976117	2.505815281502366	0.03281146040822368	0.8996723966655005	2.4359289772431394	0.798755602398288	1.0358978941555366	2.439051764960252	0.4391709274569253	1.0567362965918674	2.4623610080182905	0.10807719093020005	1.0237304038173785	2.3119503839960194	0.01762731862037739	1.0607297068462844	2.3604688771093407	0.022338436107266775	1.1090138636345237	2.505153500139527	0.0375808636266617	1.021990038908192	2.399683952957998	1.4637876567395671	0.9530323815705709	2.331321639843616	1.691332086076269	0.9447550752646687	2.269530932631905	1.6030554573976477	0.9368986556146324	2.457745779475725	1.371057294262113	0.7927528189834017	2.483394249034835	1.072882423358458	0.785187396679328	2.438468825156561	0.8468227915063685	0.7431393322610615	2.435896016099549	1.3505415916329597	1.1032492056473542	2.4727535869299415	1.0643833506963667	1.144819700462972	2.4635027234209614	0.8333681654332972	1.144524078701109
288	9.6	2.4330344404268107	0.8406413172056167	0.9496017432310289	2.4438007061449536	0.8017212646417087	0.8743630182201535	2.4100692564788853	0.47232436588403887	0.86131140501997	2.4571204129661304	0.11004863824445449	0.8754525818530685	2.2829498021169528	0.024472746357617193	0.8490017406296629	2.326180704157444	0.022547169610665	0.7957996420581149	2.506357682109401	0.03256609419091329	0.8994602595037166	2.4354644296317884	0.7978475026259222	1.0354120955348611	2.4397049980855763	0.4383838396031507	1.0576979653155643	2.462472768528854	0.10787630047768867	1.023635233123862	2.313976223806673	0.01705550640922705	1.0612597780782838	2.359798998860725	0.022655751654651904	1.1093470974292399	2.5048811657837486	0.037660151181913966	1.0218935201941668	2.3984289140731665	1.4634436841883323	0.9528510489375319	2.328357471802583	1.689533762947358	0.9480211801166034	2.269128989346126	1.6035019139545241	0.9376015393010902	2.4574056827447888	1.370868233326077	0.7928539074990688	2.4843281320239172	1.0729845289422502	0.7869176817854697	2.4381860592085727	0.8466950982252375	0.7430282675561735	2.435900098818393	1.3502891534822197	1.1032472451887758	2.472535221702831	1.0646111741226894	1.145032671657793	2.462777557793799	0.832745072931295	1.1442297831483763
289	9.633333333333333	2.4325849574960197	0.8405380469860696	0.9488109712012516	2.4426642896733783	0.8010037994782552	0.8738144003063039	2.4101024731772402	0.47216478913337245	0.8612791119744355	2.4572840482124203	0.11039013286449165	0.8754960890233691	2.282934277641616	0.02451237964365249	0.8484465510958804	2.325875722107304	0.02280064484025572	0.7956124008678214	2.506752913481472	0.03252777726072371	0.8992860384771834	2.4348100173047085	0.7968656995426943	1.034808341820134	2.440770256489069	0.4367683267053088	1.059193114635026	2.4619283868593254	0.10787283894524038	1.0237187622440116	2.315364965433056	0.01670984289083831	1.0615799704439686	2.359266192973782	0.022921056474049087	1.10984871052377	2.503972004968639	0.037719516252712984	1.0217815580673832	2.3978734827273738	1.4637927124584613	0.9531935773530666	2.326282029586337	1.6885785233867745	0.9498463223061647	2.2687255926389573	1.6039818754577402	0.9384279618961094	2.457193560840283	1.3708019730740493	0.7929266319133264	2.484712658882245	1.0732034364853402	0.7878801782743016	2.4379431706268964	0.8464348503986605	0.7430832825023199	2.4358078365452545	1.3499491090769877	1.1032528991265689	2.4722520820740104	1.0647570195011316	1.1453092641711382	2.4618956976295694	0.8316438026266398	1.1439173492957297
290	9.666666666666666	2.432162627617984	0.8403156474339615	0.948096910163488	2.441669073866463	0.8003853948033426	0.8731083410410495	2.410284007519848	0.4719359375212721	0.8611872277743726	2.457300452179335	0.1107727082678107	0.8755883835454447	2.2827351392537416	0.02479945828915575	0.8479109486705075	2.3254127865364778	0.023223475445838197	0.7954250765013016	2.5068832727608577	0.03267471283927655	0.8992258520338764	2.4340916123810565	0.7959339257686355	1.0341776460283638	2.4417986398045843	0.43484367917258937	1.060550632381865	2.460816064624819	0.10796082437751514	1.02393179418342	2.316255199933066	0.016472300683677606	1.0617923594058585	2.358981873302918	0.023053119846419758	1.1104415203348885	2.5026322953775764	0.03767356026627216	1.0215966716270213	2.3976388962803385	1.4643219895385817	0.953779708245386	2.3251402731699704	1.688359573721044	0.9503408239815401	2.2684201732048015	1.6044563485471954	0.9390991628819824	2.4571896351188847	1.3708484673448849	0.7929685652894197	2.484753667806358	1.0734004274793412	0.7884259414378115	2.4377344369081784	0.8461357337472549	0.743294936559254	2.4355984343153567	1.3495252528492763	1.1032768150482402	2.4719688499306973	1.0647540303325416	1.1455768340256467	2.461055335897404	0.8302611119444689	1.1435814953879053
291	9.7	2.431856645185144	0.8400172660383286	0.9476138777535268	2.440991462080313	0.7999311159735278	0.8724206690652893	2.4105333022305455	0.4716414912721182	0.8610436145277186	2.45719883391104	0.11107288349286719	0.8757494616306467	2.282510598376727	0.02523480643340633	0.8475044724648609	2.325064203515419	0.02365662161780777	0.7952896639269713	2.5068450252055112	0.03287348207456285	0.8993516007370367	2.433458499888749	0.7951862612133264	1.033651159123118	2.4425555495824707	0.4331557549671106	1.0614337419539757	2.4594767391574286	0.10807402008511052	1.0242043052782188	2.316881564535415	0.01624061465346194	1.0619859366810525	2.3589897072415615	0.023073397712124792	1.110957414218509	2.501197182449012	0.03751965263476748	1.021324601337731	2.3976136976066424	1.464749957142685	0.9544039421163913	2.3251972077639467	1.688889646352196	0.9495190897461282	2.2682515719857395	1.6048765049403837	0.9393028745096652	2.4573538918649014	1.3709524226996765	0.7930291666550279	2.48466762449725	1.073431526063388	0.7887879859183569	2.4375157984727425	0.8458562159729233	0.7436004707385484	2.4353032697431067	1.3490826277179402	1.1033675951049058	2.4717521842697474	1.064662871059278	1.145780037498451	2.460482473207147	0.8290328448670257	1.1432649537390145
292	9.733333333333333	2.43168063600723	0.8397471283975372	0.9474211770539387	2.440675363727308	0.7997067204764313	0.8719682606789868	2.4107161733463083	0.47129671497585046	0.8608815981296905	2.457106634239089	0.11122893464365884	0.8759524637981044	2.2824091676473763	0.02569774418526757	0.8472781485627258	2.325046522542805	0.02395662486194475	0.7952668662035979	2.506846332552377	0.03301332658200675	0.899646976438653	2.4330050097416365	0.7947631855506333	1.0333697626791976	2.4429176552967005	0.43218204155381085	1.0617607980682653	2.458343963451137	0.10822600075849385	1.0244656625350337	2.3173883177654777	0.015997131190067394	1.062171743355823	2.359265805406607	0.023091079567447662	1.1112325586656664	2.5000256046294886	0.037335176877909715	1.0210188834849787	2.398100717743174	1.465214517415104	0.955057402227834	2.326903302743057	1.6903104420121102	0.9472039759358198	2.2681939729077003	1.6051837711991794	0.9388957262237925	2.457564783274803	1.3710440670027457	0.7931744315576252	2.484627976533401	1.073193265588179	0.7891249773729178	2.4372533062520434	0.8456083269858783	0.7438975600284615	2.434967563424616	1.348725151265432	1.1035732181802975	2.4716390243507336	1.0645985024098072	1.1458968565054688	2.460268243474671	0.8283337382628236	1.1430502693004838
